<svg xmlns="http://www.w3.org/2000/svg" version="1" viewBox="0 0 24 24" enable-background="new 0 0 24 24">
    <path d="M 10.3125 2.03125 L 9.96875 2.15625 L 2.65625 4.75 L 2 5 L 2 5.6875 L 2 5.8125 L 2 6.46875 L 2.625 6.71875 L 10.03125 9.625 L 10.25 9.71875 L 10.46875 9.6875 L 14.28125 9.40625 L 14.46875 9.375 L 14.625 9.3125 L 18.5 7.4375 C 18.953528 7.2485302 20 7.7555556 20 8.5 C 20 9.20872 19.784838 9.835815 19.15625 10.15625 C 19.13442 10.16738 19.11658 10.17712 19.09375 10.1875 C 17.894102 10.626518 12.572505 12.682508 12 12.90625 L 5.96875 10.5625 C 4.9643353 10.176187 3.9014037 10.476733 3.1875 11.0625 C 2.4735963 11.648267 2 12.516667 2 13.5 C 2 15.290968 2.9744962 16.548341 4.125 17 L 4.125 17.03125 C 4.13214 17.03395 4.1491 17.02855 4.15625 17.03125 L 11.625 19.9375 L 12 20.0625 L 12.375 19.9375 L 16.59375 18.28125 L 16.59375 18.3125 L 22 16.1875 L 22 14.09375 L 16.75 16.09375 L 16.75 16.0625 L 12 17.90625 L 4.875 15.15625 L 4.84375 15.15625 C 4.4114409 14.994134 4 14.688889 4 13.5 C 4 13.183333 4.1764037 12.807983 4.4375 12.59375 C 4.6985963 12.379517 4.9544147 12.323813 5.25 12.4375 L 11.625 14.9375 L 12 15.0625 L 12.375 14.9375 C 12.375 14.9375 18.830641 12.399653 19.84375 12.03125 L 19.875 12.03125 L 19.90625 12 C 21.426099 11.309159 22 9.7666667 22 8.5 C 22 6.7967664 20.67858 5.5408113 19.1875 5.375 L 10.65625 2.15625 L 10.3125 2.03125 z M 10.28125 4.15625 L 16.09375 6.34375 L 13.90625 7.4375 L 13.8125 7.4375 L 12 6.3125 L 10.5625 7.6875 L 10.46875 7.6875 L 5.71875 5.8125 L 10.28125 4.15625 z"></path>
</svg>