<svg xmlns="http://www.w3.org/2000/svg" viewBox="0 0 50 50" fill="#00dcc1" enable-background="new 0 0 50 50">
    <path style="text-indent:0;text-align:start;line-height:normal;text-transform:none;block-progression:tb;-inkscape-font-specification:Bitstream Vera Sans" d="M 39.625 4 C 37.826959 4.079169 36.074624 5.2293709 35.125 7.53125 C 34.095611 10.026583 32.969424 12.274705 31.8125 14.3125 C 29.643969 14.112962 27.367885 14 25 14 C 18.288054 14 12.200094 14.849556 7.71875 16.25 C 5.4780779 16.950222 3.6357424 17.780503 2.28125 18.78125 C 0.92675763 19.781997 0 21.03214 0 22.5 C 0 22.586047 -0.0062688677 22.665456 0 22.75 A 1.0001 1.0001 0 0 0 0 23 C 0 30.048216 2.0361745 35.36905 4.1875 39.03125 C 5.2631627 40.86235 6.3581261 42.29738 7.25 43.3125 C 8.1418739 44.32762 8.8622924 44.987128 9 45.125 L 9.03125 45.125 C 11.233975 47.326582 16.355081 50 25 50 C 33.673451 50 38.592353 46.814509 40.84375 45.21875 C 41.553429 44.715828 43.797927 42.819781 45.96875 39.15625 C 48.139573 35.492719 50.143407 30.115452 50 22.96875 A 1.0004882 1.0004882 0 0 0 49.96875 22.78125 C 49.976771 22.685742 50 22.597436 50 22.5 C 50 21.048591 49.078414 19.806087 47.75 18.8125 C 46.759857 18.071923 45.488593 17.418443 44 16.84375 C 44.569602 16.33607 45.162848 15.837057 45.8125 15.3125 C 47.758454 13.741008 48.312236 11.681802 47.8125 9.9375 C 47.312764 8.193198 46.011976 6.7764415 44.59375 5.75 L 44.5625 5.75 C 43.146947 4.7260413 41.423041 3.9208313 39.625 4 z M 39.71875 6 C 40.833459 5.950919 42.240803 6.5319587 43.40625 7.375 C 44.569024 8.2165585 45.563236 9.380552 45.875 10.46875 C 46.186764 11.556948 46.051546 12.547492 44.5625 13.75 C 43.489521 14.616368 42.532332 15.477983 41.65625 16.3125 C 41.6507 16.317786 41.630542 16.307215 41.625 16.3125 A 1.0001 1.0001 0 0 0 41.15625 16.78125 C 41.151068 16.786349 41.161425 16.807402 41.15625 16.8125 A 1.0001 1.0001 0 0 0 41.09375 16.875 C 36.201738 21.714044 34.366249 25.84128 33.09375 28.53125 C 30.565452 28.820421 27.851053 29 25 29 C 24.245022 29 23.48717 28.990607 22.75 28.96875 C 25.396628 26.550937 29.324503 22.448054 33 16.25 C 33.007264 16.237751 33.023989 16.231015 33.03125 16.21875 A 1.0001 1.0001 0 0 0 33.5 15.40625 A 1.0001 1.0001 0 0 0 33.5 15.375 C 34.709792 13.253519 35.897552 10.909182 36.96875 8.3125 C 37.703126 6.5323791 38.604041 6.0490813 39.71875 6 z M 25 16 C 26.974809 16 28.860189 16.079553 30.6875 16.21875 C 26.523163 22.940992 22.148798 26.912763 19.90625 28.8125 C 15.408402 28.501942 11.393077 27.806447 8.3125 26.84375 C 6.2100471 26.186722 4.5431639 25.418815 3.46875 24.625 C 2.3943361 23.831185 2 23.10314 2 22.5 C 2 21.89686 2.3943361 21.168815 3.46875 20.375 C 4.5431639 19.581185 6.2100471 18.813278 8.3125 18.15625 C 12.517406 16.842194 18.456946 16 25 16 z M 42.375 18.375 C 44.164207 18.987599 45.613641 19.696552 46.5625 20.40625 C 47.611586 21.190913 48 21.903409 48 22.5 C 48 23.10314 47.605664 23.831185 46.53125 24.625 C 45.456836 25.418815 43.789953 26.186722 41.6875 26.84375 C 39.903529 27.401251 37.790798 27.859396 35.46875 28.21875 C 36.704008 25.604901 38.389395 22.316044 42.375 18.375 z M 47.90625 26.0625 C 47.52656 31.290775 45.942849 35.299357 44.25 38.15625 C 42.241573 41.545719 39.993821 43.376672 39.6875 43.59375 C 37.522897 45.127991 33.196549 48 25 48 C 16.774919 48 12.088775 45.369168 10.4375 43.71875 C 10.155208 43.436122 9.5731886 42.936943 8.75 42 C 7.9268114 41.063057 6.9073373 39.7354 5.90625 38.03125 C 4.2333781 35.183522 2.6700022 31.228102 2.1875 26.125 C 2.2235021 26.152434 2.2446121 26.191681 2.28125 26.21875 C 3.6357424 27.219497 5.4780779 28.049778 7.71875 28.75 C 12.200094 30.150444 18.288054 31 25 31 C 31.711946 31 37.799906 30.150444 42.28125 28.75 C 44.521922 28.049778 46.364258 27.219497 47.71875 26.21875 C 47.786475 26.168713 47.840726 26.11378 47.90625 26.0625 z" color="#000" overflow="visible" enable-background="accumulate" font-family="Bitstream Vera Sans"></path>
</svg>