<svg xmlns="http://www.w3.org/2000/svg" width="50" fill="#00dcc1" height="50" viewBox="0 0 50 50">
    <path style="text-indent:0;text-align:start;line-height:normal;text-transform:none;block-progression:tb;-inkscape-font-specification:Bitstream Vera Sans" d="M 0.8125 4 A 1.0001 1.0001 0 0 0 0 5 L 0 45 A 1.0001 1.0001 0 0 0 1 46 L 49 46 A 1.0001 1.0001 0 0 0 50 45 L 50 5 A 1.0001 1.0001 0 0 0 49 4 L 1 4 A 1.0001 1.0001 0 0 0 0.90625 4 A 1.0001 1.0001 0 0 0 0.8125 4 z M 2 6 L 48 6 L 48 44 L 2 44 L 2 26 L 9 26 A 1.0001 1.0001 0 0 0 9.71875 25.71875 L 12.625 22.8125 L 15.0625 29.34375 A 1.0001 1.0001 0 0 0 16.96875 29.25 L 20.4375 15.4375 L 22 39.0625 A 1.0001 1.0001 0 0 0 23.9375 39.3125 L 29.1875 23.59375 L 32.09375 29.4375 A 1.0001 1.0001 0 0 0 33.90625 29.4375 L 35.625 26 L 40.28125 26 C 40.627293 26.596896 41.260396 27 42 27 C 43.104569 27 44 26.104569 44 25 C 44 23.895431 43.104569 23 42 23 C 41.260396 23 40.627293 23.403104 40.28125 24 L 35 24 A 1.0001 1.0001 0 0 0 34.09375 24.5625 L 33 26.75 L 29.90625 20.5625 A 1.0001 1.0001 0 0 0 28.0625 20.6875 L 23.65625 33.875 L 22 8.9375 A 1.0001 1.0001 0 0 0 20.90625 8 A 1.0001 1.0001 0 0 0 20.03125 8.75 L 15.8125 25.65625 L 13.9375 20.65625 A 1.0001 1.0001 0 0 0 12.28125 20.28125 L 8.5625 24 L 2 24 L 2 6 z" color="#000" overflow="visible" enable-background="accumulate" font-family="Bitstream Vera Sans"></path>
</svg>