<svg xmlns="http://www.w3.org/2000/svg" viewBox="0 0 50 50" fill="#00dcc1" enable-background="new 0 0 50 50">
    <path style="text-indent:0;text-align:start;line-height:normal;text-transform:none;block-progression:tb;-inkscape-font-specification:Bitstream Vera Sans" d="M 26.5 3 C 19.058937 3 13 9.0589372 13 16.5 A 1.0001 1.0001 0 1 0 15 16.5 C 15 10.141063 20.141063 5 26.5 5 C 32.858937 5 38 10.141063 38 16.5 C 38 22.807881 36.768542 25.073157 34.53125 27.90625 C 32.293958 30.739343 28.971212 34.049909 25.21875 41.65625 C 24.202604 43.688541 21.942857 45 19.5 45 C 15.952846 45 13 42.047154 13 38.5 A 1.0001 1.0001 0 1 0 11 38.5 C 11 43.152846 14.847154 47 19.5 47 C 22.657143 47 25.616146 45.330209 27 42.5625 A 1.0001 1.0001 0 0 0 27 42.53125 C 30.647538 35.137591 33.762292 32.116907 36.125 29.125 C 38.487708 26.133093 40 23.092119 40 16.5 C 40 9.0589372 33.941063 3 26.5 3 z M 26.5 8 C 21.847154 8 18 11.847154 18 16.5 C 18 17.35 17.517031 17.933917 16.78125 18.71875 C 16.045469 19.503583 15 20.47381 15 22 C 15 23.344444 15.971272 24.438341 17.1875 24.84375 C 17.52155 24.9551 18.058653 25.239094 18.4375 25.5625 C 18.816347 25.885906 19 26.180952 19 26.5 C 19 26.647619 18.998 26.669901 18.9375 26.75 C 18.87702 26.8301 18.718598 26.956491 18.5 27.09375 C 18.062804 27.368268 17.333919 27.634831 16.6875 28.28125 C 15.682743 29.286007 15 30.522222 15 32 C 15 34.745455 17.254545 37 20 37 A 1.0001 1.0001 0 1 0 20 35 C 18.345455 35 17 33.654545 17 32 C 17 31.077778 17.298507 30.513993 18.09375 29.71875 C 18.347331 29.465169 18.924696 29.181732 19.5625 28.78125 C 19.881402 28.581009 20.244858 28.348026 20.53125 27.96875 C 20.817642 27.589474 21 27.052381 21 26.5 C 21 25.419048 20.396153 24.582844 19.75 24.03125 C 19.103847 23.479656 18.37845 23.12615 17.8125 22.9375 C 17.228728 22.742909 17 22.455556 17 22 C 17 21.42619 17.454531 20.908917 18.21875 20.09375 C 18.982969 19.278583 20 18.15 20 16.5 C 20 12.952846 22.952846 10 26.5 10 C 30.047154 10 33 12.952846 33 16.5 A 1.0001 1.0001 0 1 0 35 16.5 C 35 11.847154 31.152846 8 26.5 8 z" color="#000" overflow="visible" enable-background="accumulate" font-family="Bitstream Vera Sans"></path>
</svg>