<svg xmlns="http://www.w3.org/2000/svg" width="50" height="50" fill="#00dcc1" viewBox="0 0 50 50">
    <path style="text-indent:0;text-align:start;line-height:normal;text-transform:none;block-progression:tb;-inkscape-font-specification:Bitstream Vera Sans" d="M 18.8125 0 A 1.0001 1.0001 0 0 0 18 1 L 18 6 L 17 6 A 1.0001 1.0001 0 0 0 16.90625 6 A 1.001098 1.001098 0 0 0 17 8 L 32.84375 8 L 33 8 A 1.0001 1.0001 0 0 0 33.09375 8 C 33.612188 8.0453513 34 8.466814 34 9 C 34 9.5438007 33.59648 9.9689567 33.0625 10 C 33.041654 10.001212 33.021229 10 33 10 L 32.90625 10 L 18 10 A 1.0001 1.0001 0 0 0 17.90625 10 A 1.001098 1.001098 0 0 0 18 12 L 18 14.25 C 17.156816 14.485085 15.498406 15.039848 13.4375 16.5 C 10.75942 18.39742 8 21.74404 8 27 C 8 37.240752 14.09375 49.4375 14.09375 49.4375 A 1.0001 1.0001 0 0 0 15 50 L 35 50 A 1.0001 1.0001 0 0 0 35.90625 49.4375 C 35.90625 49.4375 42 37.40192 42 27 C 42 21.665733 39.245784 18.316067 36.5625 16.4375 C 34.527197 15.012584 32.867321 14.512473 32 14.28125 L 32 12 L 32.84375 12 L 33 12 C 33.032111 12 33.061868 12.001025 33.09375 12 A 1.0001 1.0001 0 0 0 33.125 12 C 33.179119 11.997681 33.227871 11.97396 33.28125 11.96875 C 34.792924 11.821218 36 10.547511 36 9 C 36 7.452489 34.792924 6.1787819 33.28125 6.03125 C 33.20696 6.0239996 33.138194 6.0016222 33.0625 6 A 1.0001 1.0001 0 0 0 33 6 L 32.8125 6 L 32 6 L 32 1 A 1.0001 1.0001 0 0 0 31 0 L 19 0 A 1.0001 1.0001 0 0 0 18.90625 0 A 1.0001 1.0001 0 0 0 18.8125 0 z M 20 2 L 30 2 L 30 6 L 20 6 L 20 2 z M 20 12 L 30 12 L 30 15 A 1.0001 1.0001 0 0 0 30.8125 15.96875 C 30.8125 15.96875 33.120784 16.440567 35.4375 18.0625 C 37.754216 19.684433 40 22.332267 40 27 C 40 36.229549 34.73507 47.129294 34.3125 48 L 15.6875 48 C 15.267602 47.122855 10 36.064177 10 27 C 10 22.42196 12.24058 19.77008 14.5625 18.125 C 16.88442 16.47992 19.21875 15.96875 19.21875 15.96875 A 1.0001 1.0001 0 0 0 20 15 L 20 12 z" color="#000" overflow="visible" enable-background="accumulate" font-family="Bitstream Vera Sans"></path>
</svg>