<svg xmlns="http://www.w3.org/2000/svg" width="50" height="50" fill="#00dcc1" viewBox="0 0 50 50">
    <path style="text-indent:0;text-align:start;line-height:normal;text-transform:none;block-progression:tb;-inkscape-font-specification:Bitstream Vera Sans" d="M 21 0 C 14.987682 0 11.443677 3.2782875 10.3125 6.15625 C 7.2114208 6.7337388 4.4141028 8.8132674 3 12.0625 C 1.5481623 15.398437 1.6094546 19.884858 3.90625 24.9375 C 2.6065906 26.634332 1.853117 28.816075 2.21875 31.03125 C 2.5797682 33.218467 4.0944964 35.25906 6.71875 36.46875 C 5.6573405 38.920431 6.0001142 41.315596 7.34375 43 C 8.7393149 44.749503 11.009418 45.709005 13.375 45.875 C 14.074704 47.708807 15.370517 48.921628 16.78125 49.4375 C 18.375044 50.020313 19.997327 50 21 50 C 22.645883 50 24.090185 49.215116 25 48 C 25.911368 49.211463 27.359012 49.98849 29 50 C 30.11806 50.0078 31.737406 49.7278 33.3125 48.875 C 34.698478 48.124593 35.933557 46.783687 36.625 44.9375 C 38.868316 44.85861 41.086243 44.392472 42.5625 42.96875 C 43.370726 42.189286 43.895098 41.108001 43.96875 39.84375 C 44.0271 38.842163 43.739145 37.71136 43.25 36.5 C 45.904905 35.29645 47.483737 33.266433 47.875 31.0625 C 48.267695 28.850498 47.473475 26.636547 46.09375 24.9375 C 48.39006 19.884854 48.451959 15.398412 47 12.0625 C 45.585779 8.813292 42.788578 6.7337383 39.6875 6.15625 C 38.556323 3.2782875 35.012318 0 29 0 C 27.515078 0 26.116852 0.38342198 25.21875 1.53125 C 25.137575 1.634996 25.071929 1.7633284 25 1.875 C 24.928071 1.7633284 24.862425 1.634996 24.78125 1.53125 C 23.883148 0.38342198 22.484922 0 21 0 z M 21 2 C 22.202078 2 22.787102 2.198328 23.21875 2.75 C 23.650398 3.301672 24 4.4943431 24 6.65625 L 24 45 C 24 46.825172 22.789987 48 21 48 C 20.005673 48 18.626706 47.98594 17.46875 47.5625 C 16.310794 47.139063 15.387348 46.430735 14.96875 44.75 L 14.78125 44 L 14 44 C 11.972977 44 9.9754352 43.090348 8.90625 41.75 C 7.8370648 40.409652 7.514492 38.71543 8.84375 36.5 L 9.5 35.4375 L 8.3125 35.0625 C 5.6001724 34.158391 4.482543 32.506258 4.1875 30.71875 C 3.8974901 28.961735 4.5239216 27.020579 5.65625 25.75 A 1.0083877 1.0083877 0 0 0 5.71875 25.6875 L 5.75 25.65625 C 5.75 25.65625 8.1811991 23 11 23 C 14.56247 23 16.3125 24.71875 16.3125 24.71875 A 1.0001 1.0001 0 1 0 17.6875 23.28125 C 17.6875 23.28125 15.24553 21 11 21 C 8.5042506 21 6.4802766 22.301636 5.3125 23.28125 C 3.5673566 19.00262 3.7192428 15.458819 4.84375 12.875 C 6.0793723 10.035868 8.4815485 8.3182288 11.09375 8 L 11.78125 7.90625 L 11.9375 7.28125 C 12.477399 5.3997153 15.389604 2 21 2 z M 29 2 C 34.610396 2 37.522601 5.3997153 38.0625 7.28125 L 38.21875 7.90625 L 38.90625 8 C 41.518451 8.3182288 43.920503 10.035842 45.15625 12.875 C 46.261971 15.41542 46.434009 18.880409 44.78125 23.0625 A 1.0001 1.0001 0 0 0 44.21875 23.78125 C 44.21875 23.78125 44.016167 24.709902 42.90625 25.78125 C 41.796333 26.852598 39.791667 28 36 28 A 1.0001 1.0001 0 1 0 36 30 C 40.208333 30 42.801167 28.647402 44.28125 27.21875 C 44.53372 26.975053 44.744754 26.743494 44.9375 26.5 C 45.764092 27.704728 46.16331 29.239512 45.90625 30.6875 C 45.589868 32.469639 44.402895 34.157368 41.6875 35.0625 L 40.59375 35.40625 L 41.09375 36.4375 C 41.790392 37.830785 42.015254 38.920501 41.96875 39.71875 C 41.92225 40.516999 41.644149 41.060714 41.15625 41.53125 C 40.199518 42.453934 38.247553 42.979824 36.125 43 C 34.84527 42.544268 33.845734 41.886479 33.15625 41 C 32.432374 40.069302 32 38.833333 32 37 A 1.0001 1.0001 0 0 0 30.78125 36 A 1.0001 1.0001 0 0 0 30 37 C 30 39.166667 30.567626 40.930698 31.59375 42.25 C 32.416985 43.308445 33.511113 44.030907 34.75 44.5625 C 34.23256 45.776822 33.346429 46.582122 32.34375 47.125 C 31.130844 47.7817 29.73394 48.005152 29 48 C 27.20177 47.987386 26 46.825172 26 45 L 26 6.65625 C 26 4.4943431 26.349602 3.301672 26.78125 2.75 C 27.212898 2.198328 27.797922 2 29 2 z M 18.90625 9.96875 A 1.0001 1.0001 0 0 0 18.78125 10 A 1.0001 1.0001 0 0 0 18 11 C 18 11.168667 17.827604 11.983743 17.15625 12.65625 C 16.484896 13.328757 15.3 14 13 14 A 1.0001 1.0001 0 1 0 13 16 C 15.7 16 17.518104 15.171243 18.59375 14.09375 C 19.669396 13.016257 20 11.831333 20 11 A 1.0001 1.0001 0 0 0 18.90625 9.96875 z M 32.90625 11.96875 A 1.0001 1.0001 0 0 0 32.78125 12 A 1.0001 1.0001 0 0 0 32 13 C 32 14.333333 32.592688 16.030188 34.03125 17.46875 C 35.469812 18.907312 37.777778 20 41 20 A 1.0001 1.0001 0 1 0 41 18 C 38.222222 18 36.530188 17.092688 35.46875 16.03125 C 34.407312 14.969812 34 13.666667 34 13 A 1.0001 1.0001 0 0 0 32.90625 11.96875 z M 10.75 30 A 1.0001221 1.0001221 0 0 0 10.8125 32 C 13.499122 32.446877 14.657778 33.878674 15.3125 35.40625 C 15.967222 36.933826 16 38.498498 16 39 A 1.0001 1.0001 0 1 0 18 39 C 18 38.502502 18.0015 36.565924 17.15625 34.59375 C 16.310972 32.621576 14.481628 30.553123 11.15625 30 A 1.0001 1.0001 0 0 0 10.84375 30 A 1.0001221 1.0001221 0 0 0 10.75 30 z" color="#000" overflow="visible" enable-background="accumulate" font-family="Bitstream Vera Sans"></path>
</svg>