<svg xmlns="http://www.w3.org/2000/svg" fill="#00dcc1" viewBox="0 0 50 50" enable-background="new 0 0 50 50">
    <path style="text-indent:0;text-align:start;line-height:normal;text-transform:none;block-progression:tb;-inkscape-font-specification:Bitstream Vera Sans" d="M 8 0 C 5.2545455 0 3 2.2545455 3 5 L 3 23 C 1.3545455 23 0 24.354545 0 26 L 0 27 L 0 36 C 0 38.745455 2.2545455 41 5 41 L 45 41 C 47.745455 41 50 38.745455 50 36 L 50 27 L 50 26 C 50 24.354545 48.645455 23 47 23 L 47 5 C 47 2.2545455 44.745455 0 42 0 L 8 0 z M 8 2 L 42 2 C 43.654545 2 45 3.3454545 45 5 L 45 19.9375 C 43.389625 20.383378 36.803967 22 25 22 C 13.196033 22 6.6103749 20.383378 5 19.9375 L 5 5 C 5 3.3454545 6.3454545 2 8 2 z M 17 5 L 18.8125 8 L 33 8 L 31.1875 5 L 17 5 z M 17 10 L 18.8125 13 L 33 13 L 31.1875 10 L 17 10 z M 17 15 L 18.8125 18 L 33 18 L 31.1875 15 L 17 15 z M 5 22 C 7.6690749 22.647761 14.47505 24 25 24 C 35.52495 24 42.330925 22.647761 45 22 L 45 23 L 45 24 L 45 29 L 45 30 L 45 39 L 5 39 L 5 29 L 5 24 L 5 23 L 5 22 z M 3 25 L 3 28 C 2.4454545 28 2 27.554545 2 27 L 2 26 C 2 25.445455 2.4454545 25 3 25 z M 47 25 C 47.554545 25 48 25.445455 48 26 L 48 27 C 48 27.554545 47.554545 28 47 28 L 47 25 z M 25 26.40625 C 25 26.40625 22.09375 30.7125 22.09375 32.3125 C 22.09375 33.9125 23.4 35.1875 25 35.1875 C 26.6 35.1875 27.90625 33.9125 27.90625 32.3125 C 27.90625 30.7125 25 26.40625 25 26.40625 z M 2 29.8125 C 2.3157872 29.926733 2.6469129 30 3 30 L 3 38.21875 C 2.3908323 37.669331 2 36.883235 2 36 L 2 29.8125 z M 48 29.8125 L 48 36 C 48 36.883235 47.609168 37.669331 47 38.21875 L 47 30 C 47.353087 30 47.684213 29.926733 48 29.8125 z M 3 42 L 3 45 C 3 47.745455 5.2545455 50 8 50 L 42 50 C 44.745455 50 47 47.745455 47 45 L 47 42 L 45 42 L 45 45 C 45 46.654545 43.654545 48 42 48 L 8 48 C 6.3454545 48 5 46.654545 5 45 L 5 42 L 3 42 z" color="#000" overflow="visible" enable-background="accumulate" font-family="Bitstream Vera Sans"></path>
</svg>