<svg xmlns="http://www.w3.org/2000/svg" width="50" height="50" viewBox="0 0 50 50" fill="#00dcc1" >
    <path style="text-indent:0;text-align:start;line-height:normal;text-transform:none;block-progression:tb;-inkscape-font-specification:Bitstream Vera Sans" d="M 18.65625 0 C 13.655742 0.070251968 9.498801 1.6638993 6.59375 4.4375 C 3.6217798 7.2749919 2 11.321536 2 16 C 2 19.444792 3.2969911 22.130089 4.71875 24.65625 C 6.1405089 27.182411 7.678673 29.5775 8.53125 32.65625 C 9.5127786 36.287906 10.207316 40.442997 11.28125 43.78125 C 11.818217 45.450377 12.451493 46.924918 13.34375 48.0625 C 14.236007 49.200082 15.498759 50 17 50 C 18.476667 50 19.834074 49.436611 20.71875 48.375 C 21.603426 47.313389 22 45.85 22 44.09375 C 22 39.735609 22.886335 33.975051 23.78125 29 C 23.78305 28.9903 23.77945 28.97848 23.78125 28.96875 C 23.946594 28.237668 24.461127 28 25 28 C 25.546916 28 26.000535 28.221958 26.125 28.96875 C 27.020633 33.844974 27.90625 39.727083 27.90625 44.09375 C 27.90625 45.85 28.302824 47.313389 29.1875 48.375 C 30.072176 49.436611 31.429583 50 32.90625 50 C 34.411037 50 35.671432 49.20764 36.5625 48.0625 C 37.453568 46.91736 38.088301 45.424761 38.625 43.75 C 39.698399 40.400478 40.394617 36.234647 41.375 32.65625 C 42.227577 29.5775 43.765741 27.182411 45.1875 24.65625 C 46.609259 22.130089 47.90625 19.444792 47.90625 16 C 47.958845 11.319012 46.36689 7.2770232 43.40625 4.4375 C 40.44561 1.5979768 36.155387 0 31 0 C 28.752203 0 26.75719 0.30255808 25 0.875 C 23.24281 0.30255808 21.247797 0 19 0 C 18.926129 0 18.85476 -0.00065594865 18.78125 0 A 1.0004882 1.0004882 0 0 0 18.65625 0 z M 18.6875 2 A 1.0004882 1.0004882 0 0 0 18.84375 2 C 18.854067 2.0007369 18.86469 1.9992429 18.875 2 C 22.804399 2.2885683 26.233266 4.0479994 28.65625 6.84375 A 1.0001 1.0001 0 1 0 30.15625 5.53125 C 29.117253 4.3324073 27.89938 3.3082018 26.5625 2.46875 C 27.854932 2.1536947 29.340218 2 31 2 C 35.744613 2 39.46064 3.4395232 42 5.875 C 44.53936 8.3104768 45.953655 11.780988 45.90625 16 C 45.90625 18.955208 44.846991 21.238661 43.46875 23.6875 C 42.090509 26.136339 40.384923 28.70375 39.4375 32.125 C 38.417883 35.846603 37.720351 39.999522 36.71875 43.125 C 36.217949 44.687739 35.612057 45.985765 34.96875 46.8125 C 34.325443 47.639235 33.751463 48 32.90625 48 C 31.882917 48 31.209074 47.713389 30.71875 47.125 C 30.228426 46.536611 29.90625 45.5375 29.90625 44.09375 C 29.90625 39.460417 28.998117 33.548776 28.09375 28.625 C 27.818215 26.971792 26.378084 26 25 26 C 23.621916 26 22.154805 26.950684 21.8125 28.59375 L 21.8125 28.625 C 20.909205 33.643303 20 39.460417 20 44.09375 C 20 45.5375 19.646574 46.536611 19.15625 47.125 C 18.665926 47.713389 18.023333 48 17 48 C 16.151241 48 15.548368 47.662418 14.90625 46.84375 C 14.264132 46.025082 13.688033 44.712123 13.1875 43.15625 C 12.186434 40.044503 11.487221 35.893344 10.46875 32.125 C 9.521327 28.70375 7.8157411 26.136339 6.4375 23.6875 C 5.0592589 21.238661 4 18.955208 4 16 C 4 11.778464 5.4157202 8.3125081 7.96875 5.875 C 10.463833 3.4928167 14.095515 2.0635529 18.6875 2 z" color="#000" overflow="visible" enable-background="accumulate" font-family="Bitstream Vera Sans"></path>
</svg>