<svg xmlns="http://www.w3.org/2000/svg" width="50" height="50"  fill="#00dcc1" viewBox="0 0 50 50">
    <path style="text-indent:0;text-align:start;line-height:normal;text-transform:none;block-progression:tb;-inkscape-font-specification:Bitstream Vera Sans" d="M 25 1 C 20.04007 1 15.180094 2.4167832 11.5625 5.59375 C 7.9449058 8.7707168 5.6503873 13.695654 5.71875 20.375 C 5.7387785 22.379854 6.1055713 24.96141 6.5625 27.28125 C 5.754683 28.584983 5.53125 29.814586 5.53125 31.25 C 5.53125 33.183536 6.6938407 34.832748 8 36.03125 C 9.0583239 37.002344 10.161637 37.596602 11.28125 37.84375 C 11.969426 40.480734 13.390018 42.571272 15.0625 44.21875 C 15.078086 44.234103 15.078117 44.26598 15.09375 44.28125 A 1.0001 1.0001 0 0 0 15.125 44.3125 A 1.0001 1.0001 0 0 0 15.65625 44.8125 A 1.0001 1.0001 0 0 0 15.6875 44.8125 C 16.297927 45.351956 16.917727 45.858116 17.5625 46.28125 C 20.39785 48.141957 23.242824 49 25 49 C 26.756449 49 29.602434 48.140312 32.4375 46.28125 C 35.137138 44.510993 37.704325 41.73554 38.71875 37.84375 C 39.951728 37.599358 41.152645 36.979869 42.1875 35.96875 C 43.444309 34.740768 44.46875 33.093205 44.46875 31.25 C 44.46875 30.456243 44.43309 29.608241 44.25 28.8125 C 44.125855 28.272949 43.91227 27.739009 43.5625 27.28125 C 45.114159 18.502479 43.480355 11.90715 39.90625 7.53125 C 36.276649 3.0874055 30.748523 1 25 1 z M 25 3 C 30.268477 3 35.147601 4.8680945 38.34375 8.78125 C 41.422217 12.550323 43.005208 18.292369 41.6875 26.375 C 41.450097 26.393087 41.213773 26.404785 41 26.46875 L 41 22.9375 A 1.0054782 1.0054782 0 0 0 41 22.84375 A 1.0001 1.0001 0 0 0 41 22.71875 A 1.0054782 1.0054782 0 0 0 40.96875 22.5625 A 1.0001 1.0001 0 0 0 40.96875 22.53125 A 1.0054782 1.0054782 0 0 0 40.9375 22.46875 A 1.0001 1.0001 0 0 0 40.9375 22.4375 A 1.0054782 1.0054782 0 0 0 40.84375 22.21875 C 39.537992 20.189019 37.478992 19.314222 35.375 19 C 33.271008 18.685778 31.065645 18.844883 29 18.875 C 26.934355 18.905117 25.059311 18.782331 23.71875 18.125 C 22.378189 17.467669 21.421398 16.372595 21 13.84375 A 1.0001 1.0001 0 0 0 19.90625 13 A 1.0001 1.0001 0 0 0 19.03125 13.78125 C 18.569194 15.868487 17.925199 17.11631 17.28125 17.875 C 16.637301 18.63369 15.976096 18.976473 15.15625 19.21875 C 14.336404 19.461027 13.372219 19.5428 12.34375 19.8125 C 11.315281 20.0822 10.217426 20.566632 9.28125 21.5625 A 1.0001 1.0001 0 0 0 9 22.6875 L 9 25.75 C 8.7829077 25.754054 8.5482051 25.782929 8.3125 25.84375 C 7.972355 23.908634 7.7337797 21.879476 7.71875 20.375 C 7.6551127 14.157346 9.7340942 9.8795332 12.90625 7.09375 C 16.078406 4.3079668 20.42293 3 25 3 z M 20.09375 17.03125 C 20.797192 18.323475 21.671558 19.3468 22.8125 19.90625 C 23.468572 20.227949 24.162092 20.446325 24.875 20.59375 C 24.405222 30.774817 15.606363 35.526099 13 36.71875 A 1.0001 1.0001 0 0 0 12.0625 36.0625 C 11.808649 36.0625 10.425591 35.495248 9.375 34.53125 C 8.3244093 33.567252 7.53125 32.320464 7.53125 31.25 C 7.53125 29.860197 7.602971 29.242437 8.34375 28.15625 A 1.0051139 1.0051139 0 0 0 8.375 28.125 C 8.3841941 28.11167 8.3968523 28.107228 8.40625 28.09375 A 1.0051139 1.0051139 0 0 0 8.40625 28.0625 C 8.4277298 28.031917 8.4489192 28.026239 8.46875 28 A 1.0051139 1.0051139 0 0 0 8.53125 27.90625 C 8.7814988 27.611131 8.9036774 27.666089 9.0625 27.6875 C 9.2472601 27.71241 9.40625 27.8125 9.40625 27.8125 A 1.0001 1.0001 0 0 0 11 27 L 11 22.6875 C 11.551902 22.205851 12.161487 21.937108 12.875 21.75 C 13.711156 21.530731 14.671096 21.434598 15.71875 21.125 C 16.766404 20.815402 17.887324 20.246279 18.8125 19.15625 C 19.294448 18.588426 19.723429 17.892672 20.09375 17.03125 z M 32.1875 20.8125 C 33.219955 20.806541 34.201746 20.835533 35.09375 20.96875 C 36.182446 21.131342 37.107996 21.433977 37.875 21.96875 C 37.496978 24.329148 36.796767 26.438014 35.90625 28.3125 C 35.59033 26.994126 34.415229 26 33 26 C 31.343146 26 30 27.343146 30 29 C 30 30.656854 31.343146 32 33 32 C 33.276142 32 33.527302 31.944853 33.78125 31.875 C 27.904277 39.949229 18.231707 42.349363 16.375 42.75 C 15.231273 41.626034 14.235414 40.277373 13.59375 38.65625 C 16.257287 37.454309 26.263136 32.199183 26.875 20.84375 C 27.582688 20.884881 28.285655 20.885415 29 20.875 C 30.071928 20.85937 31.155045 20.818459 32.1875 20.8125 z M 39 25.875 L 39 28 A 1.0001 1.0001 0 0 0 40.59375 28.8125 C 40.59375 28.8125 40.891498 28.58595 41.25 28.4375 C 41.608502 28.28905 41.845515 28.33583 41.8125 28.3125 C 41.996265 28.442078 42.190091 28.749241 42.3125 29.28125 C 42.434909 29.813259 42.46875 30.518757 42.46875 31.25 C 42.46875 32.299795 41.769691 33.565482 40.78125 34.53125 C 39.792809 35.497018 38.51706 36.0625 37.9375 36.0625 A 1.0001 1.0001 0 0 0 36.9375 36.875 C 36.179236 40.452626 33.838184 42.968812 31.3125 44.625 C 28.786816 46.281188 25.996551 47 25 47 C 24.004176 47 21.21365 46.282793 18.6875 44.625 C 18.551161 44.535527 18.41629 44.438244 18.28125 44.34375 C 23.118565 42.958096 35.154119 38.325839 39 25.875 z M 17 26 C 15.343146 26 14 27.343146 14 29 C 14 30.656854 15.343146 32 17 32 C 18.656854 32 20 30.656854 20 29 C 20 27.343146 18.656854 26 17 26 z" color="#000" overflow="visible" enable-background="accumulate" font-family="Bitstream Vera Sans"></path>
</svg>