<svg xmlns="http://www.w3.org/2000/svg" version="1" fill="#00dcc1" viewBox="0 0 50 50" enable-background="new 0 0 50 50">
    <path style="text-indent:0;text-align:start;line-height:normal;text-transform:none;block-progression:tb;-inkscape-font-specification:Bitstream Vera Sans" d="M 21.8125 0 A 1.0001 1.0001 0 0 0 21 1 C 21 6.6070571 21.476898 10.724171 22.34375 13.71875 C 23.151377 16.508735 24.318579 18.379693 25.875 19.375 C 25.84295 19.996163 25.8125 20.632257 25.8125 21.3125 C 25.8125 21.709722 25.83746 22.689983 25.78125 24.09375 C 25.72504 25.497517 25.573409 27.251373 25.1875 28.9375 C 24.801591 30.623627 24.179468 32.200805 23.28125 33.3125 C 22.383032 34.424195 21.28183 35.09375 19.59375 35.09375 C 16.745445 35.09375 15.441111 34.690524 14.15625 34.25 C 12.871389 33.809476 11.523864 33.3125 9.1875 33.3125 C 7.0067982 33.3125 4.7516017 34.401755 2.84375 37.6875 C 1.6037648 39.829293 0.0625 44.375 0.0625 44.375 A 1.0001 1.0001 0 0 0 0.09375 45.15625 C 0.09375 45.15625 0.55618189 46.053318 1.5625 46.75 C 2.5688181 47.446682 4.1940829 47.985197 6.375 47.59375 A 1.0001 1.0001 0 0 0 7.15625 46.875 C 7.3080842 46.34358 7.510969 45.262629 7.9375 44.21875 C 8.1507655 43.696811 8.4122915 43.218583 8.65625 42.9375 C 8.9002085 42.656417 9.0458333 42.59375 9.1875 42.59375 C 9.9875 42.59375 10.473978 42.6047 11.03125 42.8125 C 11.588522 43.020296 12.308564 43.481289 13.40625 44.53125 C 16.233688 47.156728 19.543955 49.8125 25.90625 49.8125 C 36.230492 49.8125 46.40641 43.138653 49.09375 30.21875 L 49.0625 30.21875 C 50.754049 22.273594 49.468478 16.54096 46.84375 12.8125 C 44.219022 9.0840401 40.338889 7.40625 37 7.40625 C 34.018475 7.40625 31.258599 7.9203324 29.21875 9.84375 C 29.01289 9.2901754 28.827275 8.5818995 28.71875 7.65625 C 28.516586 5.9319141 28.5 3.6437107 28.5 1 A 1.0001 1.0001 0 0 0 27.5 0 L 22 0 A 1.0001 1.0001 0 0 0 21.90625 0 A 1.0001 1.0001 0 0 0 21.8125 0 z M 23.0625 2 L 26.53125 2 C 26.53985 4.1853266 26.55957 6.2507448 26.75 7.875 C 26.92522 9.3695256 27.185931 10.654355 27.8125 11.625 C 26.997449 12.986495 26.404653 14.729054 26.09375 16.90625 C 25.411028 16.135663 24.762924 14.959421 24.25 13.1875 C 23.521847 10.672063 23.124056 6.9099551 23.0625 2 z M 37 9.40625 C 39.661111 9.40625 42.968478 10.77221 45.21875 13.96875 C 47.469022 17.16529 48.733451 22.226406 47.125 29.78125 C 44.61234 41.861347 35.382008 47.8125 25.90625 47.8125 C 20.068545 47.8125 17.553812 45.637022 14.78125 43.0625 C 13.578936 41.912461 12.667728 41.279704 11.75 40.9375 C 10.832272 40.595296 9.9875 40.59375 9.1875 40.59375 C 8.3291667 40.59375 7.6310415 41.077958 7.15625 41.625 C 6.6814585 42.172042 6.3554845 42.828189 6.09375 43.46875 C 5.6975752 44.438336 5.593616 45.100036 5.46875 45.625 C 4.1468046 45.736805 3.2543254 45.464533 2.71875 45.09375 C 2.2867735 44.794689 2.252556 44.647641 2.15625 44.5 C 2.3958151 43.833196 3.6828229 40.206942 4.5625 38.6875 C 6.2546483 35.773245 7.5682018 35.3125 9.1875 35.3125 C 11.251136 35.3125 12.159861 35.696774 13.5 36.15625 C 14.840139 36.615726 16.542055 37.09375 19.59375 37.09375 C 21.85567 37.09375 23.651343 36.069555 24.84375 34.59375 C 26.036157 33.117945 26.698409 31.238873 27.125 29.375 C 27.551591 27.511127 27.721836 25.639983 27.78125 24.15625 C 27.84066 22.672517 27.8125 21.515278 27.8125 21.3125 C 27.8125 16.952569 28.51212 14.200921 29.625 12.46875 A 1.0059637 1.0059637 0 0 0 30.0625 11.875 A 1.0059637 1.0059637 0 0 0 30.0625 11.84375 C 30.160992 11.723799 30.271724 11.607579 30.375 11.5 C 31.912826 9.8980981 34.116667 9.40625 37 9.40625 z" color="#000" overflow="visible" enable-background="accumulate" font-family="Bitstream Vera Sans"></path>
</svg>