<svg xmlns="http://www.w3.org/2000/svg" width="50" height="50" fill="#00dcc1" viewBox="0 0 50 50">
    <path style="text-indent:0;text-align:start;line-height:normal;text-transform:none;block-progression:tb;-inkscape-font-specification:Bitstream Vera Sans" d="M 25 1 C 19.796525 1 14.702328 2.7328045 11.25 6.59375 C 7.8596591 10.385371 6.2011712 16.218866 7.34375 24.0625 C 5.9314198 25.499178 5 27.576972 5 30.03125 C 5 31.994798 5.9081855 33.728233 7.09375 35.09375 C 8.1468223 36.306665 9.4427308 37.190369 10.6875 37.75 C 11.955147 41.629635 14.648774 44.446683 17.40625 46.25 C 20.263654 48.118667 23.114083 49 25 49 C 26.880509 49 29.743465 48.107381 32.59375 46.25 C 35.343432 44.458177 38.000615 41.697017 39.28125 37.84375 C 40.658956 37.279822 41.969847 36.321904 43 35.0625 C 44.155744 33.649556 45 31.90664 45 30.03125 C 45 27.61219 44.058464 25.513936 42.625 24.0625 C 43.646957 16.233852 41.971718 10.428357 38.625 6.625 C 35.216684 2.7516398 30.209693 1 25 1 z M 25 3 C 29.771307 3 34.188316 4.5646102 37.15625 7.9375 C 40.124184 11.31039 41.74285 16.537935 40.65625 24.1875 L 40.5625 24.75 L 41 25.09375 C 42.162005 26.084968 43 27.909722 43 30.03125 C 43 31.31286 42.402506 32.670944 41.46875 33.8125 C 40.534994 34.954056 39.289806 35.860273 38.1875 36.21875 L 37.6875 36.375 L 37.53125 36.875 C 36.47595 40.406126 34.059465 42.925881 31.5 44.59375 C 28.940535 46.261619 26.182491 47 25 47 C 23.813917 47 21.034346 46.271583 18.46875 44.59375 C 15.903154 42.915917 13.480895 40.366911 12.4375 36.8125 L 12.3125 36.3125 L 11.84375 36.15625 C 10.833989 35.776273 9.5559355 34.920733 8.59375 33.8125 C 7.6315645 32.704267 7 31.378702 7 30.03125 C 7 27.804983 7.8196066 26.018775 8.96875 25.0625 L 9.40625 24.6875 L 9.3125 24.15625 C 8.1069738 16.504859 9.7453282 11.266555 12.75 7.90625 C 15.754672 4.5459455 20.231475 3 25 3 z M 32.875 14.3125 A 1.0001 1.0001 0 0 0 32 15.3125 L 32 17.84375 C 30.193753 16.075168 27.722231 14.96875 25 14.96875 C 19.47894 14.96875 14.96875 19.47894 14.96875 25 C 14.96875 30.52106 19.47894 35.03125 25 35.03125 C 30.52106 35.03125 35.03125 30.52106 35.03125 25 A 1.03125 1.03125 0 0 0 32.96875 25 C 32.96875 29.42094 29.42094 32.96875 25 32.96875 C 20.57906 32.96875 17.03125 29.42094 17.03125 25 C 17.03125 20.57906 20.57906 17.03125 25 17.03125 C 27.010092 17.03125 28.847341 17.782239 30.25 19 L 28.3125 19 A 1.0001 1.0001 0 1 0 28.3125 21 L 33 21 L 34 21 L 34 20 L 34 15.3125 A 1.0001 1.0001 0 0 0 32.875 14.3125 z" color="#000" overflow="visible" enable-background="accumulate" font-family="Bitstream Vera Sans"></path>
</svg>